<svg xmlns="http://www.w3.org/2000/svg" viewBox="0 0 1630.08 356.25">
    <defs>
        <style>.cls{fill:#000;stroke-width:1px;}</style>
    </defs>
    <g id="Слой_2" data-name="Слой 2">
        <g id="Слой_1-2" data-name="Слой 1">
            <path class="cls" d="M0,38.67V4.92H188.91V38.67H112v311H76.88v-311Z"/>
            <path class="cls" d="M447.89,265.08l27.66,14.53q-13.6,26.72-31.44,43.12a125.05,125.05,0,0,1-40.11,25q-22.29,8.55-50.44,8.55-62.4,0-97.59-40.9t-35.19-92.46q0-48.51,29.79-86.48,37.77-48.28,101.11-48.28,65.22,0,104.15,49.45Q483.52,172.5,484,224.77H254.53q.93,44.41,28.39,72.83T350.74,326a109,109,0,0,0,37.9-6.78,99.51,99.51,0,0,0,31.32-18Q432.88,290.07,447.89,265.08Zm0-68.67q-6.57-26.25-19.13-42t-33.2-25.31a101.81,101.81,0,0,0-43.41-9.61q-37.56,0-64.54,24.14-19.71,17.58-29.8,52.74Z"/>
            <path class="cls" d="M516.09,94.69h39.38L623.29,188,690.4,94.69h39.44L643.05,215.15l97.81,134.54h-40l-77.61-107.1-77.17,107.1H507l96.62-134.3Z"/>
            <path class="cls" d="M804.14,0H837V94.69h52v28.36H837V349.69H804.14V123.05H759.38V94.69h44.76Z"/>
            <path class="cls" d="M927.89,349.69,977.25,4.92h5.6L1123,287.81,1261.82,4.92h5.52L1317,349.69h-33.78L1249.1,103.13,1127.2,349.69h-8.81L995,101.25,961.17,349.69Z"/>
            <path class="cls" d="M1594,265.08l27.66,14.53q-13.61,26.72-31.43,43.12a125,125,0,0,1-40.12,25q-22.29,8.55-50.44,8.55-62.4,0-97.59-40.9t-35.18-92.46q0-48.51,29.79-86.48,37.75-48.28,101.1-48.28,65.22,0,104.16,49.45,27.67,34.92,28.15,87.19H1400.63q.93,44.41,28.39,72.83T1496.84,326a108.86,108.86,0,0,0,37.89-6.78,99.67,99.67,0,0,0,31.33-18Q1579,290.07,1594,265.08Zm0-68.67q-6.57-26.25-19.12-42t-33.21-25.31a101.81,101.81,0,0,0-43.41-9.61q-37.54,0-64.53,24.14-19.71,17.58-29.8,52.74Z"/>
        </g>
    </g>
</svg>