<svg xmlns="http://www.w3.org/2000/svg" viewBox="0 0 1382 1382">
    <defs>
        <style>.cls-1{fill:#1f88f2;}.cls-2{fill:#fff;}</style>
    </defs>
    <g id="Слой_2" data-name="Слой 2">
        <g id="Слой_1-2" data-name="Слой 1">
            <rect class="cls-1" width="1382" height="1382" rx="271.8"/>
            <path class="cls-2"
                  d="M1121.5,824.34,992.25,406.07a102,102,0,0,0-97.42-71.86H487.17a102,102,0,0,0-97.42,71.86L260.5,824.34A102,102,0,0,0,296,935.47l327.53,250.22A60,60,0,0,0,649,1282.94a14.44,14.44,0,0,0,19-13.72V897.91a33.58,33.58,0,0,0-18.83-30.1,95,95,0,0,1-53.16-87c.88-51,42.58-92.6,93.62-93.32A95,95,0,0,1,732.1,868.18,33.55,33.55,0,0,0,713,898.4v370.82a14.44,14.44,0,0,0,19,13.72,60,60,0,0,0,25.88-96.79L1086,935.47A102,102,0,0,0,1121.5,824.34ZM456,877.5a95,95,0,1,1,95-95A95,95,0,0,1,456,877.5Zm470,0a95,95,0,1,1,95-95A95,95,0,0,1,926,877.5Z"/>
            <path class="cls-2"
                  d="M356,289h670a65,65,0,0,0,65-65h0a65,65,0,0,0-65-65H356a65,65,0,0,0-65,65h0A65,65,0,0,0,356,289Z"/>
        </g>
    </g>
</svg>