<svg xmlns="http://www.w3.org/2000/svg" viewBox="0 0 894.11 1148.69">
    <defs>
        <style>.cls-1{fill:#000;stroke:#000;stroke-linejoin:round;stroke-width:24px;}</style>
    </defs>
    <g id="Слой_2" data-name="Слой 2">
        <g id="Слой_1-2" data-name="Слой 1">
            <path class="cls-1"
                  d="M877.55,677.34,748.3,259.07a102,102,0,0,0-97.42-71.86H243.22a102,102,0,0,0-97.42,71.86L16.55,677.34A102,102,0,0,0,52.07,788.47l327.54,250.22a60,60,0,0,0,25.49,97.25,14.43,14.43,0,0,0,18.95-13.72V750.91a33.56,33.56,0,0,0-18.83-30.1,95,95,0,0,1-53.15-87c.87-51,42.57-92.6,93.61-93.32a95,95,0,0,1,42.47,180.67,33.55,33.55,0,0,0-19.1,30.22v370.82a14.44,14.44,0,0,0,19,13.72,60,60,0,0,0,25.89-96.79L842,788.47A102,102,0,0,0,877.55,677.34ZM212.05,730.5a95,95,0,1,1,95-95A95,95,0,0,1,212.05,730.5Zm470,0a95,95,0,1,1,95-95A95,95,0,0,1,682.05,730.5Z"/>
            <path class="cls-1"
                  d="M112.05,142h670a65,65,0,0,0,65-65h0a65,65,0,0,0-65-65h-670a65,65,0,0,0-65,65h0A65,65,0,0,0,112.05,142Z"/>
        </g>
    </g>
</svg>